<svg width="859" height="274" viewBox="0 0 859 274" fill="none" xmlns="http://www.w3.org/2000/svg">
<rect x="137" width="137" height="137" fill="#ED7D33"/>
<rect y="137" width="137" height="137" fill="#ED7D33"/>
<rect width="274" height="274" rx="80" fill="#ED7D33"/>
<path d="M178.522 61.193H201.987C205.099 61.193 201.987 61.1935 213.72 61.1926C213.72 72.9258 213.72 69.8141 213.72 72.9259V96.3915" stroke="#232C3B" stroke-width="20" stroke-linecap="square" stroke-linejoin="round"/>
<path d="M61.1935 96.3916V72.9259C61.1935 69.8142 61.1935 72.9259 61.1935 61.1934C72.9263 61.1933 69.8146 61.1931 72.9264 61.1931H96.392" stroke="#232C3B" stroke-width="20" stroke-linecap="square" stroke-linejoin="round"/>
<path d="M49.6952 136.683L225.048 136.683" stroke="#232C3B" stroke-width="16" stroke-linecap="round" stroke-linejoin="round"/>
<path d="M178.522 213.72H201.987C205.099 213.72 201.987 213.72 213.72 213.72C213.72 201.987 213.72 205.099 213.72 201.987V178.521" stroke="#232C3B" stroke-width="20" stroke-linecap="square" stroke-linejoin="round"/>
<path d="M61.1935 178.521V201.987C61.1935 205.099 61.1935 205.043 61.1935 213.72C73.5235 213.72 69.8146 213.72 72.9264 213.72H96.392" stroke="#232C3B" stroke-width="20" stroke-linecap="square" stroke-linejoin="round"/>
<path d="M374.634 76.7273C374.233 73.3447 372.608 70.7188 369.76 68.8494C366.912 66.9801 363.418 66.0455 359.278 66.0455C356.252 66.0455 353.604 66.535 351.334 67.5142C349.086 68.4934 347.328 69.8397 346.06 71.5533C344.814 73.2668 344.19 75.214 344.19 77.3949C344.19 79.2197 344.624 80.7886 345.492 82.1016C346.382 83.3923 347.517 84.4716 348.897 85.3395C350.277 86.1851 351.723 86.8861 353.237 87.4425C354.75 87.9766 356.141 88.4105 357.409 88.7443L364.352 90.6136C366.133 91.081 368.113 91.7263 370.294 92.5497C372.497 93.3731 374.6 94.4969 376.603 95.9212C378.628 97.3232 380.297 99.1257 381.61 101.329C382.923 103.532 383.58 106.236 383.58 109.44C383.58 113.134 382.612 116.473 380.675 119.455C378.762 122.437 375.958 124.807 372.264 126.565C368.592 128.323 364.13 129.202 358.878 129.202C353.982 129.202 349.743 128.412 346.16 126.832C342.599 125.252 339.795 123.049 337.748 120.222C335.723 117.396 334.577 114.114 334.31 110.375H342.855C343.078 112.956 343.946 115.093 345.459 116.784C346.994 118.453 348.93 119.699 351.267 120.523C353.626 121.324 356.163 121.724 358.878 121.724C362.038 121.724 364.875 121.213 367.39 120.189C369.905 119.143 371.896 117.696 373.365 115.849C374.834 113.98 375.568 111.799 375.568 109.307C375.568 107.037 374.934 105.19 373.666 103.766C372.397 102.341 370.728 101.184 368.658 100.294C366.589 99.4039 364.352 98.625 361.949 97.9574L353.537 95.554C348.196 94.0185 343.968 91.8265 340.852 88.978C337.737 86.1295 336.179 82.402 336.179 77.7955C336.179 73.9678 337.214 70.6297 339.283 67.7812C341.375 64.9105 344.179 62.6851 347.695 61.1051C351.234 59.5028 355.184 58.7017 359.546 58.7017C363.952 58.7017 367.868 59.4917 371.296 61.0717C374.723 62.6295 377.438 64.7659 379.44 67.4808C381.465 70.1958 382.534 73.2779 382.645 76.7273H374.634ZM455.962 81H447.684C447.194 78.6188 446.337 76.527 445.113 74.7244C443.912 72.9219 442.443 71.4086 440.707 70.1847C438.993 68.9384 437.091 68.0038 434.999 67.3807C432.907 66.7576 430.726 66.446 428.456 66.446C424.317 66.446 420.567 67.4919 417.207 69.5838C413.869 71.6757 411.21 74.7578 409.229 78.8303C407.271 82.9027 406.291 87.8987 406.291 93.8182C406.291 99.7377 407.271 104.734 409.229 108.806C411.21 112.879 413.869 115.961 417.207 118.053C420.567 120.144 424.317 121.19 428.456 121.19C430.726 121.19 432.907 120.879 434.999 120.256C437.091 119.633 438.993 118.709 440.707 117.485C442.443 116.239 443.912 114.714 445.113 112.912C446.337 111.087 447.194 108.995 447.684 106.636H455.962C455.339 110.13 454.204 113.257 452.557 116.016C450.91 118.776 448.863 121.124 446.415 123.06C443.967 124.973 441.219 126.431 438.17 127.433C435.144 128.434 431.906 128.935 428.456 128.935C422.626 128.935 417.441 127.51 412.901 124.662C408.361 121.813 404.789 117.763 402.186 112.511C399.582 107.259 398.28 101.028 398.28 93.8182C398.28 86.608 399.582 80.3769 402.186 75.125C404.789 69.8731 408.361 65.8229 412.901 62.9744C417.441 60.1259 422.626 58.7017 428.456 58.7017C431.906 58.7017 435.144 59.2024 438.17 60.2038C441.219 61.2053 443.967 62.674 446.415 64.6101C448.863 66.5239 450.91 68.8606 452.557 71.62C454.204 74.3572 455.339 77.4839 455.962 81ZM475.903 128H467.224L492.327 59.6364H500.872L525.974 128H517.295L496.866 70.4517H496.332L475.903 128ZM479.108 101.295H514.091V108.639H479.108V101.295ZM594.593 59.6364V128H586.582L549.329 74.3239H548.661V128H540.383V59.6364H548.394L585.78 113.446H586.448V59.6364H594.593ZM669.128 59.6364V128H661.117L623.864 74.3239H623.196V128H614.918V59.6364H622.929L660.316 113.446H660.983V59.6364H669.128ZM689.453 128V59.6364H730.712V66.9801H697.732V90.0795H728.576V97.4233H697.732V120.656H731.246V128H689.453ZM749.393 128V59.6364H772.493C777.833 59.6364 782.217 60.5488 785.645 62.3736C789.072 64.1761 791.609 66.6574 793.255 69.8175C794.902 72.9775 795.726 76.5715 795.726 80.5994C795.726 84.6274 794.902 88.1991 793.255 91.3146C791.609 94.4302 789.083 96.8781 785.678 98.6584C782.273 100.416 777.923 101.295 772.626 101.295H753.933V93.8182H772.359C776.009 93.8182 778.946 93.2841 781.172 92.2159C783.419 91.1477 785.044 89.6345 786.045 87.6761C787.069 85.6955 787.581 83.3366 787.581 80.5994C787.581 77.8622 787.069 75.4699 786.045 73.4226C785.021 71.3752 783.386 69.7952 781.138 68.6825C778.891 67.5476 775.92 66.9801 772.226 66.9801H757.672V128H749.393ZM781.572 97.2898L798.396 128H788.782L772.226 97.2898H781.572Z" fill="#F9F9F9"/>
<path d="M374.634 76.7273L372.647 76.9625L372.856 78.7273H374.634V76.7273ZM369.76 68.8494L368.663 70.5215L368.663 70.5215L369.76 68.8494ZM351.334 67.5142L350.542 65.6778L350.535 65.6806L351.334 67.5142ZM346.06 71.5533L344.452 70.3633L344.447 70.3701L344.442 70.3769L346.06 71.5533ZM345.492 82.1016L343.824 83.2044L343.835 83.2208L343.846 83.237L345.492 82.1016ZM348.897 85.3395L347.832 87.0324L347.842 87.0386L347.852 87.0447L348.897 85.3395ZM353.237 87.4425L352.546 89.3196L352.559 89.3241L352.571 89.3284L353.237 87.4425ZM357.409 88.7443L357.929 86.8131L357.918 86.8102L357.409 88.7443ZM364.352 90.6136L363.832 92.5449L363.845 92.5481L364.352 90.6136ZM370.294 92.5497L369.588 94.4208L369.594 94.4232L370.294 92.5497ZM376.603 95.9212L375.444 97.5511L375.454 97.5584L375.465 97.5655L376.603 95.9212ZM381.61 101.329L383.328 100.305L383.328 100.305L381.61 101.329ZM380.675 119.455L378.998 118.365L378.992 118.374L380.675 119.455ZM372.264 126.565L371.404 124.759L371.4 124.761L372.264 126.565ZM346.16 126.832L345.349 128.66L345.353 128.662L346.16 126.832ZM337.748 120.222L336.122 121.387L336.128 121.396L337.748 120.222ZM334.31 110.375V108.375H332.162L332.315 110.517L334.31 110.375ZM342.855 110.375L344.848 110.203L344.69 108.375H342.855V110.375ZM345.459 116.784L343.968 118.118L343.978 118.128L343.987 118.138L345.459 116.784ZM351.267 120.523L350.602 122.409L350.613 122.413L350.624 122.416L351.267 120.523ZM367.39 120.189L368.144 122.041L368.151 122.038L368.158 122.036L367.39 120.189ZM373.365 115.849L374.931 117.094L374.938 117.085L373.365 115.849ZM373.666 103.766L375.159 102.435L375.159 102.435L373.666 103.766ZM368.658 100.294L367.868 102.131L367.868 102.131L368.658 100.294ZM361.949 97.9574L361.399 99.8804L361.407 99.8825L361.414 99.8844L361.949 97.9574ZM353.537 95.554L352.984 97.4761L352.988 97.477L353.537 95.554ZM340.852 88.978L339.503 90.454L339.503 90.454L340.852 88.978ZM339.283 67.7812L337.667 66.6034L337.665 66.6057L339.283 67.7812ZM347.695 61.1051L348.515 62.9294L348.52 62.927L347.695 61.1051ZM371.296 61.0717L370.458 62.888L370.468 62.8925L371.296 61.0717ZM379.44 67.4808L377.831 68.6681L377.837 68.6766L379.44 67.4808ZM382.645 76.7273V78.7273H384.711L384.644 76.6628L382.645 76.7273ZM376.62 76.4921C376.15 72.5226 374.2 69.3707 370.857 67.1773L368.663 70.5215C371.017 72.0668 372.316 74.1668 372.647 76.9625L376.62 76.4921ZM370.857 67.1773C367.619 65.052 363.723 64.0455 359.278 64.0455V68.0455C363.112 68.0455 366.204 68.9082 368.663 70.5215L370.857 67.1773ZM359.278 64.0455C356.039 64.0455 353.111 64.5694 350.542 65.6778L352.126 69.3506C354.096 68.5007 356.465 68.0455 359.278 68.0455V64.0455ZM350.535 65.6806C348.015 66.7785 345.959 68.3281 344.452 70.3633L347.667 72.7432C348.698 71.3513 350.157 70.2082 352.133 69.3478L350.535 65.6806ZM344.442 70.3769C342.94 72.4429 342.19 74.8046 342.19 77.3949H346.19C346.19 75.6234 346.687 74.0907 347.677 72.7296L344.442 70.3769ZM342.19 77.3949C342.19 79.5478 342.707 81.5146 343.824 83.2044L347.161 80.9987C346.542 80.0625 346.19 78.8916 346.19 77.3949H342.19ZM343.846 83.237C344.896 84.7599 346.232 86.0259 347.832 87.0324L349.962 83.6466C348.803 82.9173 347.869 82.0246 347.139 80.9661L343.846 83.237ZM347.852 87.0447C349.344 87.959 350.909 88.7176 352.546 89.3196L353.927 85.5653C352.538 85.0546 351.21 84.4113 349.942 83.6343L347.852 87.0447ZM352.571 89.3284C354.125 89.8769 355.569 90.3281 356.9 90.6785L357.918 86.8102C356.713 86.4929 355.375 86.0762 353.902 85.5565L352.571 89.3284ZM356.889 90.6755L363.832 92.5449L364.872 88.6824L357.929 86.8131L356.889 90.6755ZM363.845 92.5481C365.543 92.9939 367.456 93.6158 369.588 94.4208L371.001 90.6786C368.771 89.8368 366.723 89.1681 364.86 88.6792L363.845 92.5481ZM369.594 94.4232C371.627 95.183 373.577 96.2231 375.444 97.5511L377.762 94.2913C375.624 92.7708 373.367 91.5632 370.994 90.6763L369.594 94.4232ZM375.465 97.5655C377.245 98.7978 378.72 100.385 379.892 102.353L383.328 100.305C381.875 97.8663 380.012 95.8485 377.741 94.2768L375.465 97.5655ZM379.892 102.353C380.98 104.178 381.58 106.507 381.58 109.44H385.58C385.58 105.964 384.867 102.886 383.328 100.305L379.892 102.353ZM381.58 109.44C381.58 112.764 380.715 115.721 378.998 118.365L382.353 120.544C384.508 117.224 385.58 113.505 385.58 109.44H381.58ZM378.992 118.374C377.31 120.996 374.814 123.136 371.404 124.759L373.123 128.371C377.101 126.477 380.214 123.877 382.359 120.535L378.992 118.374ZM371.4 124.761C368.064 126.358 363.914 127.202 358.878 127.202V131.202C364.345 131.202 369.119 130.287 373.127 128.369L371.4 124.761ZM358.878 127.202C354.193 127.202 350.24 126.445 346.967 125.002L345.353 128.662C349.245 130.378 353.772 131.202 358.878 131.202V127.202ZM346.971 125.004C343.695 123.55 341.185 121.557 339.368 119.049L336.128 121.396C338.406 124.54 341.504 126.954 345.349 128.66L346.971 125.004ZM339.374 119.057C337.58 116.555 336.548 113.633 336.305 110.233L332.315 110.517C332.606 114.595 333.865 118.237 336.122 121.387L339.374 119.057ZM334.31 112.375H342.855V108.375H334.31V112.375ZM340.863 110.547C341.117 113.496 342.126 116.059 343.968 118.118L346.949 115.451C345.765 114.127 345.039 112.417 344.848 110.203L340.863 110.547ZM343.987 118.138C345.764 120.07 347.986 121.487 350.602 122.409L351.932 118.636C349.875 117.911 348.225 116.837 346.931 115.43L343.987 118.138ZM350.624 122.416C353.208 123.294 355.964 123.724 358.878 123.724V119.724C356.362 119.724 354.044 119.354 351.91 118.629L350.624 122.416ZM358.878 123.724C362.255 123.724 365.354 123.177 368.144 122.041L366.636 118.337C364.397 119.248 361.821 119.724 358.878 119.724V123.724ZM368.158 122.036C370.937 120.88 373.221 119.244 374.931 117.094L371.8 114.605C370.572 116.149 368.873 117.406 366.622 118.342L368.158 122.036ZM374.938 117.085C376.697 114.845 377.568 112.224 377.568 109.307H373.568C373.568 111.374 372.97 113.115 371.792 114.614L374.938 117.085ZM377.568 109.307C377.568 106.645 376.814 104.293 375.159 102.435L372.172 105.096C373.054 106.086 373.568 107.429 373.568 109.307H377.568ZM375.159 102.435C373.664 100.757 371.739 99.4417 369.449 98.4568L367.868 102.131C369.717 102.927 371.13 103.926 372.172 105.096L375.159 102.435ZM369.449 98.4568C367.288 97.5274 364.965 96.7196 362.484 96.0303L361.414 99.8844C363.739 100.53 365.89 101.28 367.868 102.131L369.449 98.4568ZM362.498 96.0343L354.086 93.6309L352.988 97.477L361.399 99.8804L362.498 96.0343ZM354.09 93.6318C348.955 92.1557 345.029 90.0871 342.202 87.5019L339.503 90.454C342.906 93.5658 347.437 95.8812 352.984 97.4761L354.09 93.6318ZM342.202 87.5019C339.541 85.0693 338.179 81.8977 338.179 77.7955H334.179C334.179 82.9063 335.932 87.1897 339.503 90.454L342.202 87.5019ZM338.179 77.7955C338.179 74.3514 339.102 71.4335 340.901 68.9568L337.665 66.6057C335.326 69.826 334.179 73.5842 334.179 77.7955H338.179ZM340.9 68.9591C342.77 66.3931 345.288 64.3794 348.515 62.9294L346.876 59.2808C343.07 60.9909 339.981 63.4279 337.667 66.6034L340.9 68.9591ZM348.52 62.927C351.769 61.4558 355.433 60.7017 359.546 60.7017V56.7017C354.934 56.7017 350.698 57.5499 346.87 59.2832L348.52 62.927ZM359.546 60.7017C363.711 60.7017 367.334 61.4477 370.458 62.888L372.133 59.2555C368.403 57.5358 364.193 56.7017 359.546 56.7017V60.7017ZM370.468 62.8925C373.621 64.3258 376.053 66.2582 377.831 68.6681L381.05 66.2935C378.822 63.2736 375.824 60.9332 372.123 59.251L370.468 62.8925ZM377.837 68.6766C379.613 71.0572 380.548 73.7429 380.646 76.7918L384.644 76.6628C384.52 72.813 383.318 69.3343 381.044 66.285L377.837 68.6766ZM382.645 74.7273H374.634V78.7273H382.645V74.7273ZM455.962 81V83H458.348L457.931 80.651L455.962 81ZM447.684 81L445.725 81.4028L446.053 83H447.684V81ZM445.113 74.7244L443.449 75.8338L443.454 75.8409L443.459 75.8479L445.113 74.7244ZM440.707 70.1847L439.531 71.8021L439.542 71.8107L439.554 71.8192L440.707 70.1847ZM434.999 67.3807L434.428 69.2975L434.428 69.2975L434.999 67.3807ZM417.207 69.5838L416.15 67.8859L416.145 67.8891L417.207 69.5838ZM409.229 78.8303L407.43 77.9555L407.427 77.9635L409.229 78.8303ZM409.229 108.806L407.427 109.673L407.43 109.681L409.229 108.806ZM417.207 118.053L416.145 119.747L416.15 119.75L417.207 118.053ZM434.999 120.256L434.428 118.339L434.428 118.339L434.999 120.256ZM440.707 117.485L441.869 119.113L441.873 119.11L440.707 117.485ZM445.113 112.912L443.452 111.798L443.449 111.803L445.113 112.912ZM447.684 106.636V104.636H446.056L445.725 106.23L447.684 106.636ZM455.962 106.636L457.931 106.988L458.35 104.636H455.962V106.636ZM452.557 116.016L450.84 114.991L450.84 114.991L452.557 116.016ZM446.415 123.06L447.647 124.635L447.656 124.628L446.415 123.06ZM438.17 127.433L437.546 125.532L437.542 125.534L438.17 127.433ZM412.901 124.662L411.838 126.356L411.838 126.356L412.901 124.662ZM402.186 112.511L403.978 111.623L403.978 111.623L402.186 112.511ZM412.901 62.9744L411.838 61.2803L412.901 62.9744ZM438.17 60.2038L437.542 62.1026L437.546 62.104L438.17 60.2038ZM446.415 64.6101L445.174 66.1788L445.183 66.1857L446.415 64.6101ZM452.557 71.62L450.84 72.6449L450.843 72.6511L452.557 71.62ZM455.962 79H447.684V83H455.962V79ZM449.643 80.5972C449.106 77.988 448.156 75.6452 446.768 73.6009L443.459 75.8479C444.518 77.4088 445.282 79.2497 445.725 81.4028L449.643 80.5972ZM446.777 73.615C445.442 71.6116 443.801 69.919 441.86 68.5501L439.554 71.8192C441.085 72.8982 442.381 74.2322 443.449 75.8338L446.777 73.615ZM441.883 68.5672C439.981 67.1836 437.872 66.1498 435.57 65.4639L434.428 69.2975C436.309 69.8578 438.006 70.6933 439.531 71.8021L441.883 68.5672ZM435.57 65.4639C433.285 64.7834 430.912 64.446 428.456 64.446V68.446C430.541 68.446 432.529 68.7317 434.428 69.2975L435.57 65.4639ZM428.456 64.446C423.961 64.446 419.842 65.5873 416.15 67.8859L418.264 71.2817C421.292 69.3966 424.673 68.446 428.456 68.446V64.446ZM416.145 67.8891C412.444 70.2082 409.55 73.5976 407.43 77.9555L411.028 79.705C412.869 75.918 415.294 73.1431 418.269 71.2785L416.145 67.8891ZM407.427 77.9635C405.304 82.3767 404.291 87.6878 404.291 93.8182H408.291C408.291 88.1095 409.237 83.4287 411.031 79.697L407.427 77.9635ZM404.291 93.8182C404.291 99.9485 405.304 105.26 407.427 109.673L411.031 107.939C409.237 104.208 408.291 99.5268 408.291 93.8182H404.291ZM407.43 109.681C409.55 114.039 412.444 117.428 416.145 119.747L418.269 116.358C415.294 114.493 412.869 111.718 411.028 107.931L407.43 109.681ZM416.15 119.75C419.842 122.049 423.961 123.19 428.456 123.19V119.19C424.673 119.19 421.292 118.24 418.264 116.355L416.15 119.75ZM428.456 123.19C430.912 123.19 433.285 122.853 435.57 122.172L434.428 118.339C432.529 118.905 430.541 119.19 428.456 119.19V123.19ZM435.57 122.172C437.866 121.489 439.97 120.47 441.869 119.113L439.544 115.858C438.017 116.948 436.316 117.777 434.428 118.339L435.57 122.172ZM441.873 119.11C443.807 117.721 445.444 116.021 446.777 114.021L443.449 111.803C442.379 113.408 441.078 114.757 439.541 115.86L441.873 119.11ZM446.774 114.026C448.155 111.967 449.105 109.63 449.642 107.043L445.725 106.23C445.283 108.36 444.519 110.207 443.452 111.798L446.774 114.026ZM447.684 108.636H455.962V104.636H447.684V108.636ZM453.993 106.285C453.408 109.566 452.35 112.46 450.84 114.991L454.275 117.041C456.057 114.054 457.27 110.694 457.931 106.988L453.993 106.285ZM450.84 114.991C449.314 117.548 447.426 119.71 445.174 121.491L447.656 124.628C450.3 122.537 452.507 120.003 454.275 117.041L450.84 114.991ZM445.183 121.484C442.924 123.251 440.382 124.601 437.546 125.532L438.794 129.333C442.055 128.261 445.011 126.696 447.647 124.635L445.183 121.484ZM437.542 125.534C434.734 126.463 431.71 126.935 428.456 126.935V130.935C432.102 130.935 435.553 130.405 438.798 129.331L437.542 125.534ZM428.456 126.935C422.967 126.935 418.157 125.599 413.964 122.968L411.838 126.356C416.724 129.422 422.284 130.935 428.456 130.935V126.935ZM413.964 122.968C409.766 120.334 406.433 116.576 403.978 111.623L400.394 113.4C403.146 118.95 406.956 123.293 411.838 126.356L413.964 122.968ZM403.978 111.623C401.539 106.703 400.28 100.79 400.28 93.8182H396.28C396.28 101.267 397.625 107.815 400.394 113.4L403.978 111.623ZM400.28 93.8182C400.28 86.8466 401.539 80.9329 403.978 76.0133L400.394 74.2367C397.625 79.8209 396.28 86.3693 396.28 93.8182H400.28ZM403.978 76.0133C406.433 71.0601 409.766 67.3027 413.964 64.6686L411.838 61.2803C406.956 64.3432 403.146 68.6861 400.394 74.2367L403.978 76.0133ZM413.964 64.6686C418.157 62.0374 422.967 60.7017 428.456 60.7017V56.7017C422.284 56.7017 416.724 58.2145 411.838 61.2803L413.964 64.6686ZM428.456 60.7017C431.71 60.7017 434.734 61.1735 437.542 62.1026L438.798 58.3051C435.553 57.2313 432.102 56.7017 428.456 56.7017V60.7017ZM437.546 62.104C440.378 63.0341 442.916 64.3927 445.174 66.1788L447.656 63.0414C445.018 60.9553 442.06 59.3764 438.794 58.3037L437.546 62.104ZM445.183 66.1857C447.43 67.9423 449.315 70.0901 450.84 72.6449L454.275 70.5951C452.506 67.6311 450.296 65.1055 447.647 63.0345L445.183 66.1857ZM450.843 72.6511C452.35 75.1552 453.407 78.0457 453.993 81.349L457.931 80.651C457.27 76.9221 456.058 73.5593 454.271 70.589L450.843 72.6511ZM475.903 128V130H477.316L477.788 128.669L475.903 128ZM467.224 128L465.347 127.311L464.359 130H467.224V128ZM492.327 59.6364V57.6364H490.93L490.449 58.947L492.327 59.6364ZM500.872 59.6364L502.749 58.947L502.268 57.6364H500.872V59.6364ZM525.974 128V130H528.839L527.852 127.311L525.974 128ZM517.295 128L515.411 128.669L515.883 130H517.295V128ZM496.866 70.4517L498.751 69.7826L498.279 68.4517H496.866V70.4517ZM496.332 70.4517V68.4517H494.92L494.447 69.7826L496.332 70.4517ZM479.108 101.295V99.2955H477.108V101.295H479.108ZM514.091 101.295H516.091V99.2955H514.091V101.295ZM514.091 108.639V110.639H516.091V108.639H514.091ZM479.108 108.639H477.108V110.639H479.108V108.639ZM475.903 126H467.224V130H475.903V126ZM469.102 128.689L494.204 60.3257L490.449 58.947L465.347 127.311L469.102 128.689ZM492.327 61.6364H500.872V57.6364H492.327V61.6364ZM498.995 60.3257L524.097 128.689L527.852 127.311L502.749 58.947L498.995 60.3257ZM525.974 126H517.295V130H525.974V126ZM519.18 127.331L498.751 69.7826L494.982 71.1208L515.411 128.669L519.18 127.331ZM496.866 68.4517H496.332V72.4517H496.866V68.4517ZM494.447 69.7826L474.018 127.331L477.788 128.669L498.217 71.1208L494.447 69.7826ZM479.108 103.295H514.091V99.2955H479.108V103.295ZM512.091 101.295V108.639H516.091V101.295H512.091ZM514.091 106.639H479.108V110.639H514.091V106.639ZM481.108 108.639V101.295H477.108V108.639H481.108ZM594.593 59.6364H596.593V57.6364H594.593V59.6364ZM594.593 128V130H596.593V128H594.593ZM586.582 128L584.938 129.14L585.535 130H586.582V128ZM549.329 74.3239L550.972 73.1835L550.375 72.3239H549.329V74.3239ZM548.661 74.3239V72.3239H546.661V74.3239H548.661ZM548.661 128V130H550.661V128H548.661ZM540.383 128H538.383V130H540.383V128ZM540.383 59.6364V57.6364H538.383V59.6364H540.383ZM548.394 59.6364L550.037 58.4952L549.44 57.6364H548.394V59.6364ZM585.78 113.446L584.138 114.587L584.735 115.446H585.78V113.446ZM586.448 113.446V115.446H588.448V113.446H586.448ZM586.448 59.6364V57.6364H584.448V59.6364H586.448ZM592.593 59.6364V128H596.593V59.6364H592.593ZM594.593 126H586.582V130H594.593V126ZM588.225 126.86L550.972 73.1835L547.686 75.4642L584.938 129.14L588.225 126.86ZM549.329 72.3239H548.661V76.3239H549.329V72.3239ZM546.661 74.3239V128H550.661V74.3239H546.661ZM548.661 126H540.383V130H548.661V126ZM542.383 128V59.6364H538.383V128H542.383ZM540.383 61.6364H548.394V57.6364H540.383V61.6364ZM546.752 60.7775L584.138 114.587L587.423 112.305L550.037 58.4952L546.752 60.7775ZM585.78 115.446H586.448V111.446H585.78V115.446ZM588.448 113.446V59.6364H584.448V113.446H588.448ZM586.448 61.6364H594.593V57.6364H586.448V61.6364ZM669.128 59.6364H671.128V57.6364H669.128V59.6364ZM669.128 128V130H671.128V128H669.128ZM661.117 128L659.474 129.14L660.071 130H661.117V128ZM623.864 74.3239L625.507 73.1835L624.911 72.3239H623.864V74.3239ZM623.196 74.3239V72.3239H621.196V74.3239H623.196ZM623.196 128V130H625.196V128H623.196ZM614.918 128H612.918V130H614.918V128ZM614.918 59.6364V57.6364H612.918V59.6364H614.918ZM622.929 59.6364L624.572 58.4952L623.975 57.6364H622.929V59.6364ZM660.316 113.446L658.673 114.587L659.27 115.446H660.316V113.446ZM660.983 113.446V115.446H662.983V113.446H660.983ZM660.983 59.6364V57.6364H658.983V59.6364H660.983ZM667.128 59.6364V128H671.128V59.6364H667.128ZM669.128 126H661.117V130H669.128V126ZM662.76 126.86L625.507 73.1835L622.221 75.4642L659.474 129.14L662.76 126.86ZM623.864 72.3239H623.196V76.3239H623.864V72.3239ZM621.196 74.3239V128H625.196V74.3239H621.196ZM623.196 126H614.918V130H623.196V126ZM616.918 128V59.6364H612.918V128H616.918ZM614.918 61.6364H622.929V57.6364H614.918V61.6364ZM621.287 60.7775L658.673 114.587L661.958 112.305L624.572 58.4952L621.287 60.7775ZM660.316 115.446H660.983V111.446H660.316V115.446ZM662.983 113.446V59.6364H658.983V113.446H662.983ZM660.983 61.6364H669.128V57.6364H660.983V61.6364ZM689.453 128H687.453V130H689.453V128ZM689.453 59.6364V57.6364H687.453V59.6364H689.453ZM730.712 59.6364H732.712V57.6364H730.712V59.6364ZM730.712 66.9801V68.9801H732.712V66.9801H730.712ZM697.732 66.9801V64.9801H695.732V66.9801H697.732ZM697.732 90.0795H695.732V92.0795H697.732V90.0795ZM728.576 90.0795H730.576V88.0795H728.576V90.0795ZM728.576 97.4233V99.4233H730.576V97.4233H728.576ZM697.732 97.4233V95.4233H695.732V97.4233H697.732ZM697.732 120.656H695.732V122.656H697.732V120.656ZM731.246 120.656H733.246V118.656H731.246V120.656ZM731.246 128V130H733.246V128H731.246ZM691.453 128V59.6364H687.453V128H691.453ZM689.453 61.6364H730.712V57.6364H689.453V61.6364ZM728.712 59.6364V66.9801H732.712V59.6364H728.712ZM730.712 64.9801H697.732V68.9801H730.712V64.9801ZM695.732 66.9801V90.0795H699.732V66.9801H695.732ZM697.732 92.0795H728.576V88.0795H697.732V92.0795ZM726.576 90.0795V97.4233H730.576V90.0795H726.576ZM728.576 95.4233H697.732V99.4233H728.576V95.4233ZM695.732 97.4233V120.656H699.732V97.4233H695.732ZM697.732 122.656H731.246V118.656H697.732V122.656ZM729.246 120.656V128H733.246V120.656H729.246ZM731.246 126H689.453V130H731.246V126ZM749.393 128H747.393V130H749.393V128ZM749.393 59.6364V57.6364H747.393V59.6364H749.393ZM785.645 62.3736L784.705 64.1389L784.714 64.1437L785.645 62.3736ZM793.255 69.8175L791.482 70.7417L791.482 70.7418L793.255 69.8175ZM793.255 91.3146L791.487 90.38L791.487 90.38L793.255 91.3146ZM785.678 98.6584L786.596 100.435L786.605 100.431L785.678 98.6584ZM753.933 101.295H751.933V103.295H753.933V101.295ZM753.933 93.8182V91.8182H751.933V93.8182H753.933ZM781.172 92.2159L780.313 90.4095L780.306 90.4129L781.172 92.2159ZM786.045 87.6761L784.268 86.7578L784.264 86.7656L786.045 87.6761ZM781.138 68.6825L780.237 70.4678L780.244 70.4714L780.251 70.4749L781.138 68.6825ZM757.672 66.9801V64.9801H755.672V66.9801H757.672ZM757.672 128V130H759.672V128H757.672ZM781.572 97.2898L783.326 96.3289L782.757 95.2898H781.572V97.2898ZM798.396 128V130H801.772L800.15 127.039L798.396 128ZM788.782 128L787.022 128.949L787.588 130H788.782V128ZM772.226 97.2898V95.2898H768.875L770.465 98.2389L772.226 97.2898ZM751.393 128V59.6364H747.393V128H751.393ZM749.393 61.6364H772.493V57.6364H749.393V61.6364ZM772.493 61.6364C777.623 61.6364 781.655 62.5151 784.705 64.1389L786.585 60.6082C782.78 58.5824 778.044 57.6364 772.493 57.6364V61.6364ZM784.714 64.1437C787.813 65.7739 790.04 67.9744 791.482 70.7417L795.029 68.8932C793.178 65.3405 790.33 62.5784 786.576 60.6035L784.714 64.1437ZM791.482 70.7418C792.961 73.581 793.726 76.8509 793.726 80.5994H797.726C797.726 76.2921 796.843 72.374 795.029 68.8932L791.482 70.7418ZM793.726 80.5994C793.726 84.3486 792.961 87.5914 791.487 90.38L795.024 92.2492C796.843 88.8068 797.726 84.9061 797.726 80.5994H793.726ZM791.487 90.38C790.047 93.1051 787.831 95.2756 784.751 96.886L786.605 100.431C790.334 98.4805 793.17 95.7552 795.024 92.2492L791.487 90.38ZM784.76 96.8813C781.727 98.4478 777.719 99.2955 772.626 99.2955V103.295C778.126 103.295 782.82 102.385 786.596 100.435L784.76 96.8813ZM772.626 99.2955H753.933V103.295H772.626V99.2955ZM755.933 101.295V93.8182H751.933V101.295H755.933ZM753.933 95.8182H772.359V91.8182H753.933V95.8182ZM772.359 95.8182C776.177 95.8182 779.444 95.2637 782.037 94.019L780.306 90.4129C778.449 91.3045 775.841 91.8182 772.359 91.8182V95.8182ZM782.03 94.0223C784.62 92.7912 786.598 90.9878 787.826 88.5867L784.264 86.7656C783.489 88.2811 782.218 89.5042 780.313 90.4095L782.03 94.0223ZM787.822 88.5944C789.022 86.2725 789.581 83.5845 789.581 80.5994H785.581C785.581 83.0888 785.116 85.1186 784.268 86.7578L787.822 88.5944ZM789.581 80.5994C789.581 77.612 789.021 74.9025 787.834 72.5282L784.256 74.317C785.116 76.0374 785.581 78.1125 785.581 80.5994H789.581ZM787.834 72.5282C786.597 70.0537 784.624 68.1765 782.026 66.8901L780.251 70.4749C782.148 71.414 783.446 72.6968 784.256 74.317L787.834 72.5282ZM782.04 66.8972C779.413 65.5707 776.098 64.9801 772.226 64.9801V68.9801C775.742 68.9801 778.368 69.5244 780.237 70.4678L782.04 66.8972ZM772.226 64.9801H757.672V68.9801H772.226V64.9801ZM755.672 66.9801V128H759.672V66.9801H755.672ZM757.672 126H749.393V130H757.672V126ZM779.818 98.2507L796.642 128.961L800.15 127.039L783.326 96.3289L779.818 98.2507ZM798.396 126H788.782V130H798.396V126ZM790.543 127.051L773.986 96.3407L770.465 98.2389L787.022 128.949L790.543 127.051ZM772.226 99.2898H781.572V95.2898H772.226V99.2898Z" fill="#F9F9F9"/>
<path d="M352.449 213.474H338.309V167.655H353.075C357.52 167.655 361.323 168.573 364.485 170.407C367.647 172.227 370.07 174.844 371.756 178.26C373.441 181.66 374.284 185.732 374.284 190.475C374.284 195.248 373.434 199.357 371.733 202.802C370.033 206.233 367.557 208.872 364.306 210.722C361.055 212.556 357.102 213.474 352.449 213.474ZM343.858 208.552H352.091C355.879 208.552 359.019 207.821 361.509 206.359C364 204.898 365.857 202.817 367.08 200.117C368.303 197.418 368.915 194.204 368.915 190.475C368.915 186.776 368.311 183.592 367.102 180.922C365.894 178.237 364.09 176.179 361.688 174.747C359.287 173.301 356.297 172.577 352.717 172.577H343.858V208.552ZM384.765 213.474V179.11H390.045V213.474H384.765ZM387.449 173.383C386.42 173.383 385.533 173.032 384.787 172.331C384.056 171.63 383.691 170.788 383.691 169.803C383.691 168.819 384.056 167.976 384.787 167.275C385.533 166.574 386.42 166.224 387.449 166.224C388.479 166.224 389.359 166.574 390.089 167.275C390.835 167.976 391.208 168.819 391.208 169.803C391.208 170.788 390.835 171.63 390.089 172.331C389.359 173.032 388.479 173.383 387.449 173.383ZM415.476 227.076C412.925 227.076 410.733 226.748 408.898 226.092C407.064 225.45 405.535 224.6 404.312 223.541C403.104 222.497 402.142 221.378 401.426 220.185L405.632 217.232C406.109 217.859 406.713 218.574 407.444 219.38C408.175 220.2 409.174 220.909 410.442 221.505C411.725 222.117 413.403 222.422 415.476 222.422C418.25 222.422 420.539 221.751 422.344 220.409C424.149 219.067 425.051 216.964 425.051 214.1V207.12H424.604C424.216 207.746 423.664 208.522 422.948 209.447C422.247 210.356 421.233 211.169 419.905 211.885C418.593 212.586 416.818 212.937 414.581 212.937C411.807 212.937 409.316 212.28 407.109 210.968C404.916 209.655 403.179 207.746 401.896 205.241C400.628 202.735 399.994 199.692 399.994 196.113C399.994 192.593 400.613 189.528 401.851 186.918C403.089 184.293 404.812 182.264 407.019 180.833C409.226 179.386 411.777 178.663 414.67 178.663C416.908 178.663 418.682 179.035 419.995 179.781C421.322 180.512 422.337 181.347 423.038 182.287C423.753 183.212 424.305 183.972 424.693 184.569H425.23V179.11H430.331V214.458C430.331 217.411 429.66 219.812 428.317 221.662C426.99 223.526 425.2 224.891 422.948 225.756C420.711 226.636 418.22 227.076 415.476 227.076ZM415.297 208.194C417.415 208.194 419.204 207.709 420.666 206.74C422.128 205.77 423.239 204.376 424 202.556C424.76 200.736 425.141 198.559 425.141 196.023C425.141 193.547 424.768 191.362 424.022 189.468C423.276 187.574 422.172 186.09 420.711 185.016C419.249 183.942 417.445 183.405 415.297 183.405C413.06 183.405 411.195 183.972 409.704 185.106C408.227 186.239 407.116 187.761 406.37 189.67C405.639 191.579 405.274 193.697 405.274 196.023C405.274 198.41 405.647 200.52 406.393 202.355C407.153 204.174 408.272 205.606 409.748 206.65C411.24 207.679 413.089 208.194 415.297 208.194ZM441.886 213.474V179.11H447.165V213.474H441.886ZM444.57 173.383C443.541 173.383 442.654 173.032 441.908 172.331C441.177 171.63 440.812 170.788 440.812 169.803C440.812 168.819 441.177 167.976 441.908 167.275C442.654 166.574 443.541 166.224 444.57 166.224C445.599 166.224 446.479 166.574 447.21 167.275C447.956 167.976 448.329 168.819 448.329 169.803C448.329 170.788 447.956 171.63 447.21 172.331C446.479 173.032 445.599 173.383 444.57 173.383ZM473.67 179.11V183.584H455.862V179.11H473.67ZM461.053 170.877H466.332V203.63C466.332 205.121 466.549 206.24 466.981 206.986C467.429 207.717 467.995 208.209 468.681 208.462C469.382 208.701 470.121 208.82 470.896 208.82C471.478 208.82 471.955 208.79 472.328 208.731C472.701 208.656 472.999 208.597 473.223 208.552L474.297 213.295C473.939 213.429 473.439 213.563 472.798 213.697C472.157 213.847 471.344 213.921 470.359 213.921C468.868 213.921 467.406 213.6 465.974 212.959C464.558 212.318 463.379 211.341 462.44 210.028C461.515 208.716 461.053 207.06 461.053 205.062V170.877ZM493.615 214.279C491.437 214.279 489.461 213.869 487.686 213.049C485.911 212.213 484.502 211.013 483.458 209.447C482.414 207.866 481.892 205.957 481.892 203.719C481.892 201.751 482.28 200.155 483.055 198.932C483.831 197.694 484.867 196.724 486.165 196.023C487.462 195.322 488.894 194.8 490.46 194.457C492.041 194.099 493.63 193.816 495.226 193.607C497.314 193.339 499.006 193.137 500.304 193.003C501.617 192.854 502.571 192.608 503.168 192.265C503.779 191.922 504.085 191.325 504.085 190.475V190.296C504.085 188.089 503.481 186.373 502.273 185.15C501.08 183.927 499.267 183.316 496.836 183.316C494.316 183.316 492.34 183.868 490.908 184.972C489.476 186.075 488.469 187.253 487.887 188.506L482.876 186.717C483.771 184.628 484.964 183.003 486.456 181.839C487.962 180.661 489.603 179.841 491.378 179.378C493.167 178.901 494.927 178.663 496.657 178.663C497.761 178.663 499.029 178.797 500.461 179.065C501.907 179.319 503.302 179.848 504.644 180.654C506.001 181.459 507.128 182.675 508.022 184.3C508.917 185.926 509.365 188.104 509.365 190.833V213.474H504.085V208.82H503.816C503.459 209.566 502.862 210.364 502.027 211.214C501.191 212.064 500.08 212.788 498.693 213.384C497.306 213.981 495.613 214.279 493.615 214.279ZM494.42 209.536C496.508 209.536 498.268 209.126 499.7 208.306C501.147 207.485 502.236 206.426 502.966 205.129C503.712 203.831 504.085 202.467 504.085 201.035V196.202C503.861 196.471 503.369 196.717 502.608 196.941C501.863 197.149 500.998 197.336 500.013 197.5C499.044 197.649 498.097 197.783 497.172 197.903C496.262 198.007 495.524 198.097 494.957 198.171C493.585 198.35 492.302 198.641 491.109 199.044C489.931 199.431 488.976 200.021 488.245 200.811C487.53 201.587 487.172 202.646 487.172 203.988C487.172 205.822 487.85 207.209 489.207 208.149C490.58 209.074 492.317 209.536 494.42 209.536ZM526.171 167.655V213.474H520.892V167.655H526.171ZM581.681 186.806L576.939 188.148C576.64 187.358 576.2 186.59 575.619 185.844C575.052 185.083 574.276 184.457 573.292 183.965C572.307 183.473 571.047 183.226 569.511 183.226C567.408 183.226 565.655 183.711 564.254 184.681C562.866 185.635 562.173 186.851 562.173 188.327C562.173 189.64 562.65 190.676 563.605 191.437C564.559 192.198 566.051 192.832 568.079 193.339L573.18 194.592C576.252 195.337 578.542 196.478 580.048 198.014C581.555 199.536 582.308 201.497 582.308 203.898C582.308 205.867 581.741 207.627 580.608 209.178C579.489 210.729 577.923 211.952 575.909 212.847C573.896 213.742 571.554 214.19 568.885 214.19C565.38 214.19 562.479 213.429 560.182 211.908C557.885 210.386 556.431 208.164 555.819 205.241L560.831 203.988C561.308 205.837 562.21 207.224 563.538 208.149C564.88 209.074 566.632 209.536 568.795 209.536C571.256 209.536 573.21 209.014 574.657 207.97C576.118 206.911 576.849 205.643 576.849 204.167C576.849 202.974 576.431 201.974 575.596 201.169C574.761 200.349 573.478 199.737 571.748 199.334L566.021 197.992C562.874 197.246 560.562 196.09 559.086 194.524C557.624 192.943 556.893 190.967 556.893 188.596C556.893 186.657 557.437 184.942 558.526 183.45C559.63 181.959 561.129 180.788 563.023 179.938C564.932 179.088 567.095 178.663 569.511 178.663C572.912 178.663 575.581 179.408 577.52 180.9C579.474 182.391 580.861 184.36 581.681 186.806ZM606.106 214.19C603.004 214.19 600.282 213.451 597.94 211.975C595.613 210.498 593.794 208.432 592.481 205.778C591.184 203.123 590.535 200.021 590.535 196.471C590.535 192.891 591.184 189.767 592.481 187.097C593.794 184.427 595.613 182.354 597.94 180.877C600.282 179.401 603.004 178.663 606.106 178.663C609.208 178.663 611.923 179.401 614.249 180.877C616.591 182.354 618.41 184.427 619.708 187.097C621.021 189.767 621.677 192.891 621.677 196.471C621.677 200.021 621.021 203.123 619.708 205.778C618.41 208.432 616.591 210.498 614.249 211.975C611.923 213.451 609.208 214.19 606.106 214.19ZM606.106 209.447C608.462 209.447 610.401 208.843 611.923 207.634C613.444 206.426 614.57 204.838 615.301 202.869C616.032 200.9 616.397 198.768 616.397 196.471C616.397 194.174 616.032 192.034 615.301 190.05C614.57 188.066 613.444 186.463 611.923 185.24C610.401 184.017 608.462 183.405 606.106 183.405C603.749 183.405 601.81 184.017 600.289 185.24C598.768 186.463 597.642 188.066 596.911 190.05C596.18 192.034 595.815 194.174 595.815 196.471C595.815 198.768 596.18 200.9 596.911 202.869C597.642 204.838 598.768 206.426 600.289 207.634C601.81 208.843 603.749 209.447 606.106 209.447ZM636.906 167.655V213.474H631.626V167.655H636.906ZM670.123 199.424V179.11H675.403V213.474H670.123V207.657H669.765C668.96 209.402 667.707 210.886 666.006 212.109C664.306 213.317 662.158 213.921 659.563 213.921C657.415 213.921 655.506 213.451 653.836 212.512C652.165 211.557 650.853 210.125 649.898 208.216C648.944 206.292 648.467 203.869 648.467 200.945V179.11H653.746V200.587C653.746 203.093 654.447 205.092 655.849 206.583C657.266 208.074 659.071 208.82 661.263 208.82C662.576 208.82 663.911 208.485 665.268 207.813C666.64 207.142 667.789 206.113 668.713 204.726C669.653 203.339 670.123 201.572 670.123 199.424ZM701.908 179.11V183.584H684.099V179.11H701.908ZM689.29 170.877H694.57V203.63C694.57 205.121 694.786 206.24 695.218 206.986C695.666 207.717 696.233 208.209 696.919 208.462C697.62 208.701 698.358 208.82 699.133 208.82C699.715 208.82 700.192 208.79 700.565 208.731C700.938 208.656 701.236 208.597 701.46 208.552L702.534 213.295C702.176 213.429 701.676 213.563 701.035 213.697C700.394 213.847 699.581 213.921 698.597 213.921C697.105 213.921 695.643 213.6 694.212 212.959C692.795 212.318 691.616 211.341 690.677 210.028C689.752 208.716 689.29 207.06 689.29 205.062V170.877ZM711.74 213.474V179.11H717.02V213.474H711.74ZM714.424 173.383C713.395 173.383 712.508 173.032 711.762 172.331C711.031 171.63 710.666 170.788 710.666 169.803C710.666 168.819 711.031 167.976 711.762 167.275C712.508 166.574 713.395 166.224 714.424 166.224C715.454 166.224 716.333 166.574 717.064 167.275C717.81 167.976 718.183 168.819 718.183 169.803C718.183 170.788 717.81 171.63 717.064 172.331C716.333 173.032 715.454 173.383 714.424 173.383ZM742.54 214.19C739.438 214.19 736.716 213.451 734.374 211.975C732.048 210.498 730.228 208.432 728.916 205.778C727.618 203.123 726.969 200.021 726.969 196.471C726.969 192.891 727.618 189.767 728.916 187.097C730.228 184.427 732.048 182.354 734.374 180.877C736.716 179.401 739.438 178.663 742.54 178.663C745.642 178.663 748.357 179.401 750.684 180.877C753.025 182.354 754.845 184.427 756.142 187.097C757.455 189.767 758.111 192.891 758.111 196.471C758.111 200.021 757.455 203.123 756.142 205.778C754.845 208.432 753.025 210.498 750.684 211.975C748.357 213.451 745.642 214.19 742.54 214.19ZM742.54 209.447C744.897 209.447 746.836 208.843 748.357 207.634C749.878 206.426 751.004 204.838 751.735 202.869C752.466 200.9 752.831 198.768 752.831 196.471C752.831 194.174 752.466 192.034 751.735 190.05C751.004 188.066 749.878 186.463 748.357 185.24C746.836 184.017 744.897 183.405 742.54 183.405C740.184 183.405 738.245 184.017 736.723 185.24C735.202 186.463 734.076 188.066 733.345 190.05C732.614 192.034 732.249 194.174 732.249 196.471C732.249 198.768 732.614 200.9 733.345 202.869C734.076 204.838 735.202 206.426 736.723 207.634C738.245 208.843 740.184 209.447 742.54 209.447ZM773.341 192.802V213.474H768.061V179.11H773.162V184.479H773.609C774.414 182.734 775.637 181.332 777.278 180.273C778.919 179.199 781.037 178.663 783.632 178.663C785.959 178.663 787.994 179.14 789.739 180.094C791.484 181.034 792.842 182.466 793.811 184.39C794.781 186.299 795.265 188.715 795.265 191.638V213.474H789.985V191.996C789.985 189.297 789.285 187.194 787.883 185.687C786.481 184.166 784.557 183.405 782.11 183.405C780.425 183.405 778.919 183.771 777.591 184.502C776.279 185.233 775.242 186.299 774.482 187.701C773.721 189.103 773.341 190.803 773.341 192.802Z" fill="#F9F9F9"/>
</svg>
